<mxfile host="app.diagrams.net" modified="2022-04-25T09:03:00.467Z" agent="5.0 (Windows NT 10.0; Win64; x64) AppleWebKit/537.36 (KHTML, like Gecko) Chrome/95.0.4638.54 Safari/537.36" etag="H5uOmT_hD_DJnvbqlXXK" version="17.4.6" type="github">
  <diagram id="C5RBs43oDa-KdzZeNtuy" name="Page-1">
    <mxGraphModel dx="2249" dy="1931" grid="1" gridSize="10" guides="1" tooltips="1" connect="1" arrows="1" fold="1" page="1" pageScale="1" pageWidth="827" pageHeight="1169" math="0" shadow="0">
      <root>
        <mxCell id="WIyWlLk6GJQsqaUBKTNV-0" />
        <mxCell id="WIyWlLk6GJQsqaUBKTNV-1" parent="WIyWlLk6GJQsqaUBKTNV-0" />
        <mxCell id="qTx2XnCyuuAxlnc1B6k1-24" style="edgeStyle=orthogonalEdgeStyle;rounded=0;orthogonalLoop=1;jettySize=auto;html=1;entryX=0.5;entryY=1;entryDx=0;entryDy=0;exitX=0.5;exitY=1;exitDx=0;exitDy=0;" edge="1" parent="WIyWlLk6GJQsqaUBKTNV-1" source="qTx2XnCyuuAxlnc1B6k1-2" target="qTx2XnCyuuAxlnc1B6k1-6">
          <mxGeometry relative="1" as="geometry">
            <Array as="points">
              <mxPoint x="-213" y="220" />
              <mxPoint x="155" y="220" />
            </Array>
          </mxGeometry>
        </mxCell>
        <mxCell id="qTx2XnCyuuAxlnc1B6k1-1" value="重整申请（债务人，债权人，出资人）" style="rounded=0;whiteSpace=wrap;html=1;fillColor=#ffe6cc;strokeColor=#d79b00;" vertex="1" parent="WIyWlLk6GJQsqaUBKTNV-1">
          <mxGeometry x="-500" y="-30" width="120" height="40" as="geometry" />
        </mxCell>
        <mxCell id="qTx2XnCyuuAxlnc1B6k1-5" value="" style="edgeStyle=orthogonalEdgeStyle;rounded=0;orthogonalLoop=1;jettySize=auto;html=1;" edge="1" parent="WIyWlLk6GJQsqaUBKTNV-1" source="qTx2XnCyuuAxlnc1B6k1-2" target="qTx2XnCyuuAxlnc1B6k1-4">
          <mxGeometry relative="1" as="geometry" />
        </mxCell>
        <mxCell id="qTx2XnCyuuAxlnc1B6k1-16" value="" style="edgeStyle=orthogonalEdgeStyle;rounded=0;orthogonalLoop=1;jettySize=auto;html=1;" edge="1" parent="WIyWlLk6GJQsqaUBKTNV-1" source="qTx2XnCyuuAxlnc1B6k1-2" target="qTx2XnCyuuAxlnc1B6k1-15">
          <mxGeometry relative="1" as="geometry" />
        </mxCell>
        <mxCell id="qTx2XnCyuuAxlnc1B6k1-2" value="重整启动" style="rounded=0;whiteSpace=wrap;html=1;fillColor=#ffe6cc;strokeColor=#d79b00;" vertex="1" parent="WIyWlLk6GJQsqaUBKTNV-1">
          <mxGeometry x="-278" y="-30" width="130" height="40" as="geometry" />
        </mxCell>
        <mxCell id="qTx2XnCyuuAxlnc1B6k1-7" value="" style="edgeStyle=orthogonalEdgeStyle;rounded=0;orthogonalLoop=1;jettySize=auto;html=1;" edge="1" parent="WIyWlLk6GJQsqaUBKTNV-1" source="qTx2XnCyuuAxlnc1B6k1-4" target="qTx2XnCyuuAxlnc1B6k1-6">
          <mxGeometry relative="1" as="geometry" />
        </mxCell>
        <mxCell id="qTx2XnCyuuAxlnc1B6k1-20" value="" style="edgeStyle=orthogonalEdgeStyle;rounded=0;orthogonalLoop=1;jettySize=auto;html=1;" edge="1" parent="WIyWlLk6GJQsqaUBKTNV-1" source="qTx2XnCyuuAxlnc1B6k1-4" target="qTx2XnCyuuAxlnc1B6k1-19">
          <mxGeometry relative="1" as="geometry" />
        </mxCell>
        <mxCell id="qTx2XnCyuuAxlnc1B6k1-4" value="管理人或债务人出计划" style="rounded=0;whiteSpace=wrap;html=1;fillColor=#f8cecc;strokeColor=#b85450;" vertex="1" parent="WIyWlLk6GJQsqaUBKTNV-1">
          <mxGeometry x="-110" y="-120" width="130" height="40" as="geometry" />
        </mxCell>
        <mxCell id="qTx2XnCyuuAxlnc1B6k1-18" value="" style="edgeStyle=orthogonalEdgeStyle;rounded=0;orthogonalLoop=1;jettySize=auto;html=1;" edge="1" parent="WIyWlLk6GJQsqaUBKTNV-1" source="qTx2XnCyuuAxlnc1B6k1-6" target="qTx2XnCyuuAxlnc1B6k1-17">
          <mxGeometry relative="1" as="geometry" />
        </mxCell>
        <mxCell id="qTx2XnCyuuAxlnc1B6k1-6" value="1 通过&amp;nbsp; 且&amp;nbsp; &amp;nbsp;1批准。" style="rounded=0;whiteSpace=wrap;html=1;fillColor=#ffe6cc;strokeColor=#d79b00;" vertex="1" parent="WIyWlLk6GJQsqaUBKTNV-1">
          <mxGeometry x="90" y="-120" width="130" height="40" as="geometry" />
        </mxCell>
        <mxCell id="qTx2XnCyuuAxlnc1B6k1-13" style="edgeStyle=orthogonalEdgeStyle;rounded=0;orthogonalLoop=1;jettySize=auto;html=1;entryX=0;entryY=0.5;entryDx=0;entryDy=0;" edge="1" parent="WIyWlLk6GJQsqaUBKTNV-1" source="qTx2XnCyuuAxlnc1B6k1-8" target="qTx2XnCyuuAxlnc1B6k1-2">
          <mxGeometry relative="1" as="geometry" />
        </mxCell>
        <mxCell id="qTx2XnCyuuAxlnc1B6k1-8" value="&lt;font color=&quot;#0000ff&quot;&gt;法院定后&lt;/font&gt;" style="text;html=1;align=center;verticalAlign=middle;resizable=0;points=[];autosize=1;strokeColor=none;fillColor=none;" vertex="1" parent="WIyWlLk6GJQsqaUBKTNV-1">
          <mxGeometry x="-370" y="-20" width="60" height="20" as="geometry" />
        </mxCell>
        <mxCell id="qTx2XnCyuuAxlnc1B6k1-14" value="" style="edgeStyle=orthogonalEdgeStyle;rounded=0;orthogonalLoop=1;jettySize=auto;html=1;endArrow=none;" edge="1" parent="WIyWlLk6GJQsqaUBKTNV-1" source="qTx2XnCyuuAxlnc1B6k1-1" target="qTx2XnCyuuAxlnc1B6k1-8">
          <mxGeometry relative="1" as="geometry">
            <mxPoint x="-390" y="10" as="sourcePoint" />
            <mxPoint x="-310" y="10" as="targetPoint" />
          </mxGeometry>
        </mxCell>
        <mxCell id="qTx2XnCyuuAxlnc1B6k1-15" value="没有计划直接重整结束" style="rounded=0;whiteSpace=wrap;html=1;fillColor=#f8cecc;strokeColor=#b85450;" vertex="1" parent="WIyWlLk6GJQsqaUBKTNV-1">
          <mxGeometry x="-110" y="60" width="130" height="40" as="geometry" />
        </mxCell>
        <mxCell id="qTx2XnCyuuAxlnc1B6k1-22" value="" style="edgeStyle=orthogonalEdgeStyle;rounded=0;orthogonalLoop=1;jettySize=auto;html=1;" edge="1" parent="WIyWlLk6GJQsqaUBKTNV-1" source="qTx2XnCyuuAxlnc1B6k1-17" target="qTx2XnCyuuAxlnc1B6k1-21">
          <mxGeometry relative="1" as="geometry" />
        </mxCell>
        <mxCell id="qTx2XnCyuuAxlnc1B6k1-17" value="重整计划执行" style="rounded=0;whiteSpace=wrap;html=1;fillColor=#ffe6cc;strokeColor=#d79b00;" vertex="1" parent="WIyWlLk6GJQsqaUBKTNV-1">
          <mxGeometry x="300" y="-120" width="130" height="40" as="geometry" />
        </mxCell>
        <mxCell id="qTx2XnCyuuAxlnc1B6k1-19" value="分组2/3 ，1/2全通过&amp;nbsp;" style="rounded=0;whiteSpace=wrap;html=1;fillColor=#fff2cc;strokeColor=#d6b656;" vertex="1" parent="WIyWlLk6GJQsqaUBKTNV-1">
          <mxGeometry x="-110" y="-240" width="130" height="40" as="geometry" />
        </mxCell>
        <mxCell id="qTx2XnCyuuAxlnc1B6k1-21" value="若执行失败：1 承诺失效 2 清偿有效 3 同组等人" style="rounded=0;whiteSpace=wrap;html=1;fillColor=#ffe6cc;strokeColor=#d79b00;" vertex="1" parent="WIyWlLk6GJQsqaUBKTNV-1">
          <mxGeometry x="510" y="-120" width="130" height="40" as="geometry" />
        </mxCell>
        <mxCell id="qTx2XnCyuuAxlnc1B6k1-28" value="&lt;font style=&quot;font-size: 18px&quot;&gt;重整期间：担保，取回权，营业事物&lt;/font&gt;" style="text;html=1;align=center;verticalAlign=middle;resizable=0;points=[];autosize=1;strokeColor=none;fillColor=none;fontStyle=1;fontColor=#0000FF;" vertex="1" parent="WIyWlLk6GJQsqaUBKTNV-1">
          <mxGeometry x="-185" y="200" width="300" height="20" as="geometry" />
        </mxCell>
      </root>
    </mxGraphModel>
  </diagram>
</mxfile>
